<svg width="54" height="51" viewBox="0 0 54 51" fill="none" xmlns="http://www.w3.org/2000/svg">
<g clip-path="url(#clip0_321_648)">
<mask id="mask0_321_648" style="mask-type:luminance" maskUnits="userSpaceOnUse" x="6" y="6" width="42" height="39">
<path d="M47.25 6.375H6.75V44.625H47.25V6.375Z" fill="white"/>
</mask>
<g mask="url(#mask0_321_648)">
<path d="M7.71871 44.0654L26.7445 25.6461C26.8636 25.5307 26.8865 25.3523 26.7871 25.2213C25.6297 23.6955 23.4953 23.4311 22.7041 22.406C20.3603 19.3695 19.7656 17.6509 18.7585 17.7575C18.6882 17.7649 18.6254 17.8007 18.576 17.8485L11.7029 24.5026C7.74893 28.3305 7.18191 36.7586 7.07792 43.8158C7.07322 44.1347 7.48289 44.2936 7.71871 44.0654Z" fill="#017CEE"/>
<path d="M46.6576 43.6102L27.1547 25.6413C27.0326 25.5288 26.8437 25.5072 26.7049 25.6011C25.0894 26.6941 24.8094 28.71 23.724 29.4572C20.509 31.6707 18.6892 32.2324 18.8021 33.1837C18.81 33.2501 18.8478 33.3093 18.8985 33.3559L25.9439 39.8473C29.997 43.5816 38.9209 44.1171 46.3933 44.2152C46.7309 44.2198 46.8992 43.8329 46.6576 43.6102Z" fill="#00AD46"/>
<path fill-rule="evenodd" clip-rule="evenodd" d="M25.9438 39.8472C23.7298 37.8075 22.7026 33.772 26.9471 25.4503C20.049 28.3617 17.6316 32.1889 18.8208 33.2846L25.9438 39.8472Z" fill="#04D659"/>
<path d="M46.175 6.83499L27.1493 25.2543C27.0301 25.3697 27.0073 25.5481 27.1067 25.6791C28.264 27.2049 30.3985 27.4693 31.1896 28.4944C33.5335 31.5308 34.1282 33.2494 35.1352 33.143C35.2055 33.1356 35.2683 33.0997 35.3178 33.0518L42.1907 26.3978C46.1449 22.5699 46.7119 14.1418 46.8158 7.08452C46.8205 6.76561 46.4108 6.60669 46.175 6.83499Z" fill="#00C7D4"/>
<path fill-rule="evenodd" clip-rule="evenodd" d="M42.1909 26.3978C40.0309 28.4887 35.7581 29.459 26.9468 25.4503C30.0295 31.9651 34.0818 34.2483 35.242 33.1251L42.1909 26.3978Z" fill="#11E1EE"/>
<path d="M7.23659 7.29022L26.7394 25.259C26.8616 25.3715 27.0504 25.3931 27.1892 25.2993C28.8047 24.2062 29.0847 22.1904 30.17 21.4431C33.3852 19.2295 35.2049 18.6679 35.092 17.7167C35.0841 17.6503 35.0462 17.591 34.9957 17.5443L27.9502 11.0531C23.897 7.31877 14.9732 6.78325 7.5008 6.68504C7.16313 6.6806 6.99486 7.0675 7.23659 7.29022Z" fill="#E43921"/>
<path fill-rule="evenodd" clip-rule="evenodd" d="M27.9501 11.053C30.164 13.0928 31.1913 17.1282 26.9468 25.45C33.8449 22.5386 36.2624 18.7113 35.073 17.6157L27.9501 11.053Z" fill="#FF7557"/>
<path fill-rule="evenodd" clip-rule="evenodd" d="M11.7031 24.5026C13.863 22.4116 18.1357 21.4415 26.9471 25.4502C23.8643 18.9352 19.812 16.6522 18.6519 17.7753L11.7031 24.5026Z" fill="#0CB6FF"/>
<path d="M26.9604 26.2511C27.4302 26.2456 27.8063 25.8814 27.8005 25.4377C27.7947 24.994 27.4091 24.6387 26.9393 24.6442C26.4695 24.6497 26.0933 25.0139 26.0992 25.4576C26.105 25.9013 26.4906 26.2566 26.9604 26.2511Z" fill="#4A4848"/>
</g>
</g>
<defs>
<clipPath id="clip0_321_648">
<rect width="40.5" height="38.25" fill="white" transform="translate(6.75 6.375)"/>
</clipPath>
</defs>
</svg>
