<svg width="55" height="34" viewBox="0 0 55 34" fill="none" xmlns="http://www.w3.org/2000/svg">
<path d="M15.8484 12.8063C15.8484 13.4772 15.9209 14.0211 16.0479 14.42C16.1929 14.8188 16.3742 15.254 16.6281 15.7254C16.7187 15.8704 16.755 16.0155 16.755 16.1424C16.755 16.3237 16.6462 16.505 16.4105 16.6863L15.2682 17.4478C15.1051 17.5566 14.9419 17.611 14.7968 17.611C14.6155 17.611 14.4342 17.5204 14.2529 17.3572C13.9991 17.0852 13.7815 16.7951 13.6002 16.505C13.4189 16.1968 13.2376 15.8523 13.0381 15.4353C11.6239 17.1033 9.84708 17.9374 7.70763 17.9374C6.18463 17.9374 4.96985 17.5022 4.08144 16.6319C3.19302 15.7617 2.73975 14.6013 2.73975 13.1508C2.73975 11.6097 3.28367 10.3586 4.38966 9.41582C5.49565 8.47301 6.96426 8.00161 8.83175 8.00161C9.4482 8.00161 10.0828 8.056 10.7536 8.14665C11.4245 8.23731 12.1134 8.38236 12.8387 8.54554V7.22198C12.8387 5.84402 12.5486 4.88308 11.9865 4.32102C11.4063 3.75896 10.4273 3.487 9.03119 3.487C8.3966 3.487 7.74389 3.55952 7.07304 3.7227C6.4022 3.88588 5.74948 4.08532 5.1149 4.33915C4.82481 4.46607 4.60723 4.53859 4.48032 4.57486C4.3534 4.61112 4.26275 4.62925 4.19022 4.62925C3.93639 4.62925 3.80947 4.44794 3.80947 4.06719V3.17877C3.80947 2.88868 3.84573 2.67111 3.93639 2.54419C4.02704 2.41727 4.19022 2.29036 4.44406 2.16344C5.07864 1.83708 5.84014 1.56512 6.72856 1.34755C7.61697 1.11184 8.55978 1.00306 9.55698 1.00306C11.7146 1.00306 13.292 1.49259 14.3073 2.47167C15.3045 3.45074 15.8122 4.93748 15.8122 6.93188V12.8063H15.8484ZM8.48726 15.5622C9.08558 15.5622 9.70203 15.4534 10.3547 15.2359C11.0075 15.0183 11.5877 14.6194 12.0772 14.0755C12.3673 13.731 12.5849 13.3502 12.6936 12.9151C12.8024 12.48 12.8749 11.9542 12.8749 11.3377V10.5762C12.3492 10.4493 11.7871 10.3405 11.2069 10.268C10.6267 10.1955 10.0647 10.1592 9.50259 10.1592C8.28782 10.1592 7.3994 10.3949 6.80108 10.8844C6.20276 11.374 5.91266 12.0629 5.91266 12.9695C5.91266 13.8216 6.13023 14.4562 6.58351 14.8914C7.01865 15.3446 7.65323 15.5622 8.48726 15.5622ZM23.0464 17.5204C22.7201 17.5204 22.5025 17.466 22.3574 17.339C22.2124 17.2303 22.0855 16.9764 21.9767 16.6319L17.7159 2.61671C17.6071 2.25409 17.5527 2.01839 17.5527 1.89148C17.5527 1.60138 17.6978 1.4382 17.9879 1.4382H19.7647C20.1092 1.4382 20.3449 1.49259 20.4718 1.61951C20.6169 1.7283 20.7256 1.98213 20.8344 2.32662L23.8804 14.3293L26.7089 2.32662C26.7995 1.964 26.9083 1.7283 27.0534 1.61951C27.1984 1.51073 27.4522 1.4382 27.7786 1.4382H29.2291C29.5736 1.4382 29.8093 1.49259 29.9543 1.61951C30.0994 1.7283 30.2263 1.98213 30.2988 2.32662L33.1635 14.4744L36.3001 2.32662C36.4089 1.964 36.5358 1.7283 36.6628 1.61951C36.8078 1.51073 37.0435 1.4382 37.3699 1.4382H39.056C39.3461 1.4382 39.5093 1.58325 39.5093 1.89148C39.5093 1.98213 39.4912 2.07278 39.4731 2.18157C39.4549 2.29036 39.4187 2.4354 39.3461 2.63484L34.9766 16.6501C34.8678 17.0127 34.7409 17.2484 34.5958 17.3572C34.4508 17.466 34.2151 17.5385 33.9069 17.5385H32.3476C32.0031 17.5385 31.7674 17.4841 31.6224 17.3572C31.4773 17.2303 31.3504 16.9946 31.2779 16.6319L28.4676 4.93748L25.6754 16.6138C25.5847 16.9764 25.476 17.2121 25.3309 17.339C25.1859 17.466 24.932 17.5204 24.6057 17.5204H23.0464ZM46.3447 18.0099C45.4019 18.0099 44.4591 17.9011 43.5525 17.6835C42.646 17.466 41.9389 17.2303 41.4675 16.9583C41.1774 16.7951 40.9779 16.6138 40.9054 16.4506C40.8329 16.2875 40.7966 16.1061 40.7966 15.943V15.0183C40.7966 14.6375 40.9417 14.4562 41.2136 14.4562C41.3224 14.4562 41.4312 14.4744 41.54 14.5106C41.6488 14.5469 41.8119 14.6194 41.9933 14.6919C42.6097 14.9639 43.2806 15.1815 43.9877 15.3265C44.7129 15.4716 45.42 15.5441 46.1452 15.5441C47.2875 15.5441 48.1759 15.3446 48.7924 14.9458C49.4088 14.5469 49.7352 13.9667 49.7352 13.2233C49.7352 12.7157 49.572 12.2986 49.2456 11.9542C48.9193 11.6097 48.3028 11.3014 47.4144 11.0113L44.7854 10.1955C43.4619 9.77844 42.4828 9.16199 41.8845 8.3461C41.2861 7.54833 40.9779 6.65992 40.9779 5.71711C40.9779 4.95561 41.1411 4.28476 41.4675 3.70457C41.7938 3.12438 42.229 2.61671 42.7729 2.21783C43.3168 1.80082 43.9333 1.49259 44.6585 1.27502C45.3837 1.05745 46.1452 0.966797 46.943 0.966797C47.3419 0.966797 47.7589 0.984928 48.1578 1.03932C48.5748 1.09371 48.9555 1.16624 49.3363 1.23876C49.6989 1.32942 50.0434 1.42007 50.3698 1.52886C50.6961 1.63764 50.9499 1.74643 51.1313 1.85521C51.3851 2.00026 51.5664 2.14531 51.6752 2.30849C51.784 2.45354 51.8384 2.65298 51.8384 2.90681V3.75896C51.8384 4.13971 51.6933 4.33915 51.4214 4.33915C51.2763 4.33915 51.0406 4.26663 50.7324 4.12158C49.6989 3.65018 48.5385 3.41448 47.2512 3.41448C46.2178 3.41448 45.4019 3.57765 44.8398 3.92214C44.2778 4.26663 43.9877 4.79243 43.9877 5.5358C43.9877 6.04346 44.169 6.47861 44.5316 6.82309C44.8942 7.16758 45.5651 7.51207 46.526 7.8203L49.1006 8.63619C50.406 9.0532 51.3488 9.63339 51.9109 10.3768C52.4729 11.1201 52.7449 11.9723 52.7449 12.9151C52.7449 13.6947 52.5817 14.4018 52.2735 15.0183C51.9472 15.6347 51.512 16.1787 50.9499 16.6138C50.3879 17.0671 49.717 17.3934 48.9374 17.6291C48.1215 17.883 47.2694 18.0099 46.3447 18.0099Z" fill="#FF9900"/>
<path d="M49.7713 26.8215C43.8062 31.2273 35.1397 33.5662 27.6878 33.5662C17.2444 33.5662 7.83444 29.7043 0.727103 23.286C0.165044 22.7783 0.67271 22.0893 1.34356 22.4882C9.03108 26.9484 18.5136 29.6499 28.3224 29.6499C34.9402 29.6499 42.2107 28.272 48.901 25.4436C49.8982 24.9903 50.7504 26.0963 49.7713 26.8215ZM52.2553 23.9931C51.4938 23.014 47.2149 23.5217 45.2749 23.7574C44.6947 23.8299 44.604 23.3222 45.1298 22.9415C48.5384 20.5482 54.1409 21.2372 54.7936 22.0349C55.4463 22.8508 54.6123 28.4533 51.4212 31.1367C50.9317 31.5537 50.4603 31.3361 50.6779 30.7922C51.4031 28.9972 53.0168 24.954 52.2553 23.9931Z" fill="#FF9900"/>
</svg>
