<svg width="56" height="55" viewBox="0 0 56 55" fill="none" xmlns="http://www.w3.org/2000/svg">
<g clip-path="url(#clip0_322_675)">
<path d="M43.4829 15.3319L44.6593 16.1837C46.7052 17.8339 47.8817 19.6971 48.1374 21.8265C50.3368 21.4006 53.15 21.7201 54.3775 22.5718L55.5028 23.2639L55.2982 23.6897C54.9402 24.4883 54.8379 24.7012 54.7867 24.8077C52.7919 28.8003 48.8535 28.8535 47.0121 28.8003C42.3576 40.4587 32.4348 46.9001 19.0339 46.9001C12.8449 46.9001 8.13924 44.9304 4.96803 41.0442C0.77385 35.9337 0.773849 29.2794 1.13189 27.15L1.23419 26.7241H38.2146C40.1582 26.7241 41.6415 26.1918 42.3576 25.7659C41.5904 24.5947 41.3346 23.2639 41.2835 22.5186C41.13 20.3892 41.6415 18.1533 42.6645 16.5563L43.4829 15.3319ZM10.8501 20.336V25.6594H5.22377V20.336H10.8501ZM17.4994 20.336V25.6594H11.8731V20.336H17.4994ZM24.1487 20.336V25.6594H18.5224V20.336H24.1487ZM30.798 20.336V25.6594H25.1717V20.336H30.798ZM37.4474 20.336V25.6594H31.821V20.336H37.4474ZM30.798 13.9478V19.2713H25.1717V13.9478H30.798ZM24.1487 13.9478V19.2713H18.5224V13.9478H24.1487ZM17.4994 13.9478V19.2713H11.8731V13.9478H17.4994ZM30.798 7.55963V12.8831H25.1717V7.55963H30.798Z" fill="#2396ED"/>
</g>
<defs>
<clipPath id="clip0_322_675">
<rect width="54.5145" height="54.5145" fill="white" transform="translate(0.988281)"/>
</clipPath>
</defs>
</svg>
