<svg width="54" height="51" viewBox="0 0 54 51" fill="none" xmlns="http://www.w3.org/2000/svg">
<path d="M52.9819 23.2285L29.4035 0.961863C28.0469 -0.320621 25.8448 -0.320621 24.4864 0.961863L19.5907 5.58629L25.8008 11.4517C27.2445 10.9913 28.8993 11.3 30.0495 12.3866C31.2058 13.48 31.5303 15.0562 31.0306 16.4243L37.0161 22.0775C38.4641 21.6062 40.1349 21.9107 41.2912 23.0047C42.9077 24.5311 42.9077 27.0044 41.2912 28.5312C39.6743 30.0585 37.0556 30.0585 35.4379 28.5312C34.2224 27.3823 33.9217 25.6954 34.5374 24.2809L28.9553 19.0087L28.9548 32.8825C29.3489 33.0667 29.7209 33.3127 30.0493 33.6215C31.6654 35.1477 31.6654 37.6206 30.0493 39.1493C28.4327 40.6755 25.8128 40.6755 24.198 39.1493C22.5816 37.6207 22.5816 35.1478 24.198 33.6215C24.5974 33.2449 25.0596 32.9599 25.5528 32.7688V18.7661C25.0594 18.5759 24.5977 18.2929 24.1977 17.9133C22.9734 16.7579 22.6785 15.0608 23.3064 13.6408L17.1844 7.85781L1.01872 23.1256C-0.339574 24.4091 -0.339574 26.4889 1.01872 27.7715L24.5956 50.0381C25.953 51.3206 28.1544 51.3206 29.5137 50.0381L52.9816 27.8767C54.3395 26.5936 54.3395 24.5131 52.9816 23.2303" fill="#F05133"/>
</svg>
