<?xml version="1.0" encoding="utf-8"?>
<!-- Generator: Adobe Illustrator 26.5.0, SVG Export Plug-In . SVG Version: 6.00 Build 0)  -->
<svg version="1.1" id="Layer_1" xmlns="http://www.w3.org/2000/svg" xmlns:xlink="http://www.w3.org/1999/xlink" x="0px" y="0px"
	 viewBox="0 0 512 512" style="enable-background:new 0 0 512 512;" xml:space="preserve">
<style type="text/css">
	.st0{fill:#509EE3;}
	.st1{fill:#DCECF9;}
</style>
<g id="XMLID_1_">
	<ellipse id="XMLID_3_" class="st0" cx="84.16" cy="130.88" rx="30.72" ry="31.14"/>
	<ellipse id="XMLID_4_" class="st0" cx="84.16" cy="218.13" rx="30.72" ry="31.14"/>
	<path id="XMLID_5_" class="st1" d="M170.15,99.73c-16.97,0-30.72,13.89-30.72,31.14s13.75,31.14,30.72,31.14
		s30.72-13.89,30.72-31.14C200.73,113.62,186.99,99.73,170.15,99.73"/>
	<ellipse id="XMLID_6_" class="st0" cx="170.15" cy="218.97" rx="30.72" ry="31.14"/>
	<path id="XMLID_7_" class="st1" d="M256,99.73c-16.97,0-30.72,13.89-30.72,31.14s13.75,31.14,30.72,31.14s30.72-13.89,30.72-31.14
		S272.97,99.73,256,99.73"/>
	<path id="XMLID_8_" class="st1" d="M256,0c-16.97,0-30.72,13.89-30.72,31.14S239.03,62.28,256,62.28s30.72-13.89,30.72-31.14
		S272.97,0,256,0"/>
	<path id="XMLID_9_" class="st1" d="M256,187.83c-16.97,0-30.72,13.89-30.72,31.14s13.75,31.14,30.72,31.14s30.72-13.89,30.72-31.14
		C286.72,201.85,272.97,187.83,256,187.83"/>
	<path id="XMLID_10_" class="st1" d="M341.85,99.73c-16.97,0-30.72,13.89-30.72,31.14s13.75,31.14,30.72,31.14
		c16.97,0,30.72-13.89,30.72-31.14S358.82,99.73,341.85,99.73"/>
	<ellipse id="XMLID_11_" class="st0" cx="427.84" cy="130.88" rx="30.72" ry="31.14"/>
	<ellipse id="XMLID_12_" class="st0" cx="341.85" cy="218.97" rx="30.72" ry="31.14"/>
	<ellipse id="XMLID_13_" class="st0" cx="427.84" cy="218.97" rx="30.72" ry="31.14"/>
	<ellipse id="XMLID_14_" class="st0" cx="84.16" cy="305.38" rx="30.72" ry="31.14"/>
	<path id="XMLID_15_" class="st1" d="M170.15,275.08c-16.97,0-30.72,13.89-30.72,31.14c0,17.25,13.75,31.14,30.72,31.14
		s30.72-13.89,30.72-31.14C200.73,289.1,186.99,275.08,170.15,275.08"/>
	<ellipse id="XMLID_16_" class="st0" cx="256" cy="306.36" rx="30.72" ry="31.14"/>
	<path id="XMLID_17_" class="st1" d="M341.85,275.08c-16.97,0-30.72,13.89-30.72,31.14c0,17.25,13.75,31.14,30.72,31.14
		c16.97,0,30.72-13.89,30.72-31.14C372.57,289.1,358.82,275.08,341.85,275.08"/>
	<ellipse id="XMLID_18_" class="st0" cx="427.84" cy="306.36" rx="30.72" ry="31.14"/>
	<ellipse id="XMLID_19_" class="st0" cx="84.16" cy="392.77" rx="30.72" ry="31.14"/>
	<path id="XMLID_20_" class="st1" d="M170.15,362.33c-16.97,0-30.72,13.89-30.72,31.14s13.75,31.14,30.72,31.14
		s30.72-13.89,30.72-31.14S186.99,362.33,170.15,362.33"/>
	<path id="XMLID_21_" class="st1" d="M256,362.33c-16.97,0-30.72,13.89-30.72,31.14s13.75,31.14,30.72,31.14
		s30.72-13.89,30.72-31.14S272.97,362.33,256,362.33"/>
	<path id="XMLID_22_" class="st1" d="M256,449.72c-16.97,0-30.72,13.89-30.72,31.14c0,17.25,13.75,31.14,30.72,31.14
		s30.72-13.89,30.72-31.14S272.97,449.72,256,449.72"/>
	<path id="XMLID_23_" class="st1" d="M341.85,362.33c-16.97,0-30.72,13.89-30.72,31.14s13.75,31.14,30.72,31.14
		c16.97,0,30.72-13.89,30.72-31.14S358.82,362.33,341.85,362.33"/>
	<ellipse id="XMLID_24_" class="st0" cx="427.84" cy="393.61" rx="30.72" ry="31.14"/>
</g>
</svg>
