<svg width="55" height="51" viewBox="0 0 55 51" fill="none" xmlns="http://www.w3.org/2000/svg">
<path d="M27.4789 0C13.7596 9.28571e-07 14.6164 5.64397 14.6164 5.64397L14.6316 11.4911H27.7236V13.2466H9.43156C9.43156 13.2466 0.652588 12.3022 0.652588 25.4341C0.652587 38.5661 8.31507 38.1004 8.31507 38.1004H12.8881V32.0067C12.8881 32.0067 12.6416 24.7377 20.4282 24.7377C28.2148 24.7377 33.4131 24.7377 33.4131 24.7377C33.4131 24.7377 40.7086 24.8496 40.7086 18.0491C40.7086 11.2486 40.7086 6.80469 40.7086 6.80469C40.7086 6.80468 41.8162 0 27.4789 0ZM20.26 3.93192C21.5625 3.93192 22.6153 4.93063 22.6153 6.16629C22.6153 7.40196 21.5625 8.40067 20.26 8.40067C18.9574 8.40067 17.9046 7.40196 17.9046 6.16629C17.9046 4.93063 18.9574 3.93192 20.26 3.93192Z" fill="url(#paint0_linear_321_663)"/>
<path d="M27.8686 51C41.5879 51 40.7312 45.356 40.7312 45.356L40.7159 39.5089H27.6239V37.7534H45.916C45.916 37.7534 54.695 38.6978 54.695 25.5659C54.695 12.4339 47.0325 12.8996 47.0325 12.8996H42.4595V18.9933C42.4595 18.9933 42.706 26.2623 34.9193 26.2623C27.1327 26.2623 21.9344 26.2623 21.9344 26.2623C21.9344 26.2623 14.639 26.1504 14.639 32.9509C14.639 39.7514 14.639 44.1953 14.639 44.1953C14.639 44.1953 13.5313 51 27.8686 51ZM35.0876 47.0681C33.785 47.0681 32.7322 46.0694 32.7322 44.8337C32.7322 43.598 33.785 42.5993 35.0876 42.5993C36.3901 42.5993 37.4429 43.598 37.4429 44.8337C37.4429 46.0694 36.3901 47.0681 35.0876 47.0681Z" fill="url(#paint1_linear_321_663)"/>
<defs>
<linearGradient id="paint0_linear_321_663" x1="5.84616" y1="4.45785" x2="31.1565" y2="31.2276" gradientUnits="userSpaceOnUse">
<stop stop-color="#387EB8"/>
<stop offset="1" stop-color="#366994"/>
</linearGradient>
<linearGradient id="paint1_linear_321_663" x1="22.2847" y1="20.6384" x2="49.5343" y2="48.1582" gradientUnits="userSpaceOnUse">
<stop stop-color="#FFE052"/>
<stop offset="1" stop-color="#FFC331"/>
</linearGradient>
</defs>
</svg>
