<svg width="55" height="51" viewBox="0 0 55 51" fill="none" xmlns="http://www.w3.org/2000/svg">
<path d="M55.0001 25.4999C55.0001 39.5823 42.9024 50.9993 27.979 50.9993C13.0553 50.9993 0.957764 39.5823 0.957764 25.4999C0.957764 11.4166 13.0554 0 27.979 0C42.9026 0 55.0001 11.4166 55.0001 25.4999Z" fill="#DD4814"/>
<path d="M9.60567 22.0947C7.61227 22.0947 5.99731 23.6189 5.99731 25.4999C5.99731 27.3801 7.61227 28.9041 9.60567 28.9041C11.598 28.9041 13.2129 27.3801 13.2129 25.4999C13.2129 23.6189 11.598 22.0947 9.60567 22.0947ZM35.3637 37.5682C33.6382 38.5087 33.0465 40.5897 34.0433 42.2172C35.0388 43.8456 37.244 44.4038 38.9695 43.4633C40.6949 42.5238 41.2865 40.4428 40.2899 38.8142C39.2944 37.1869 37.088 36.6287 35.3637 37.5682ZM17.4418 25.4999C17.4418 22.1355 19.2127 19.1631 21.9223 17.3632L19.2848 13.1944C16.1284 15.1855 13.7799 18.228 12.804 21.7914C13.9428 22.6684 14.6717 24.0033 14.6717 25.4998C14.6717 26.9954 13.9428 28.3303 12.804 29.2073C13.7787 32.7717 16.1272 35.8144 19.2848 37.8055L21.9223 33.6356C19.2127 31.8368 17.4418 28.8645 17.4418 25.4999ZM27.9792 15.5547C33.4842 15.5547 38.0007 19.5379 38.4748 24.6178L43.6153 24.5462C43.3624 20.796 41.6264 17.4293 38.9589 14.9537C37.5871 15.4427 36.0027 15.3679 34.6332 14.6229C33.2613 13.8758 32.4012 12.6155 32.166 11.2474C30.8328 10.9001 29.4296 10.71 27.9789 10.71C25.485 10.71 23.1272 11.2628 21.0337 12.2407L23.5404 16.4798C24.8889 15.8876 26.3933 15.5547 27.9792 15.5547ZM27.9792 35.4441C26.3933 35.4441 24.8889 35.1111 23.5406 34.519L21.0338 38.758C23.1273 39.7371 25.4852 40.29 27.9792 40.29C29.4299 40.29 30.8331 40.0998 32.1662 39.7515C32.4013 38.3833 33.2618 37.1242 34.6333 36.3758C36.0038 35.6296 37.5873 35.5561 38.959 36.0452C41.6265 33.5695 43.3626 30.2028 43.6155 26.4526L38.4737 26.3811C38.0007 31.4622 33.4844 35.4441 27.9792 35.4441ZM35.3624 13.4296C37.088 14.37 39.2933 13.813 40.2888 12.1846C41.2854 10.5562 40.6952 8.475 38.9695 7.53434C37.244 6.59487 35.0388 7.15306 34.0419 8.78146C33.0465 10.409 33.638 12.4901 35.3624 13.4296Z" fill="white"/>
</svg>
