<?xml version="1.0" encoding="utf-8"?>
<!-- Svg Vector Icons : http://www.onlinewebfonts.com/icon -->
<!DOCTYPE svg PUBLIC "-//W3C//DTD SVG 1.1//EN" "http://www.w3.org/Graphics/SVG/1.1/DTD/svg11.dtd">
<svg version="1.1" xmlns="http://www.w3.org/2000/svg" xmlns:xlink="http://www.w3.org/1999/xlink" x="0px" y="0px" viewBox="0 0 256 256" enable-background="new 0 0 256 256" xml:space="preserve">
<metadata> Svg Vector Icons : http://www.onlinewebfonts.com/icon </metadata>
<g><g><path fill="#956bff" d="M216,29.7H40c-16.5,0-30,14.1-30,31.5v133.5c0,17.4,13.4,31.5,30,31.5H216c16.5,0,30-14.2,30-31.5V61.2C246,43.8,232.6,29.7,216,29.7L216,29.7z M227.6,194.8c0,6.7-5.2,12.1-11.5,12.1H40c-6.4,0-11.5-5.4-11.5-12.1V61.2c0-6.7,5.2-12.2,11.5-12.2H216c6.4,0,11.5,5.5,11.5,12.2V194.8L227.6,194.8z"/><path fill="#956bff" d="M200,66.5c-12.3,0-22.3,9.9-22.3,22.1c0,3.9,1.1,7.5,2.9,10.7l-18.3,26.6c-1.2-0.2-2.3-0.4-3.5-0.4c-4.5,0-8.7,1.3-12.2,3.7l-26.7-18c0.1-1,0.3-1.9,0.3-2.9c0-12.2-10-22.1-22.3-22.1c-12.3,0-22.3,9.9-22.3,22.1c0,3.8,1,7.2,2.7,10.3l-18.4,27c-1.1-0.2-2.2-0.4-3.3-0.4c-12.3,0-22.3,9.9-22.3,22.1c0,12.2,10,22.1,22.3,22.1c12.3,0,22.3-9.9,22.3-22.1c0-4.3-1.3-8.3-3.5-11.8l17.6-25.7c1.6,0.4,3.2,0.6,4.9,0.6c4.5,0,8.7-1.3,12.2-3.7l26.7,18c-0.1,1-0.3,1.9-0.3,2.9c0,12.2,10,22.1,22.3,22.1c12.3,0,22.3-9.9,22.3-22.1c0-4.3-1.3-8.2-3.4-11.6l17.8-25.8c1.5,0.3,3,0.5,4.6,0.5c12.3,0,22.3-9.9,22.3-22.1C222.3,76.4,212.3,66.5,200,66.5L200,66.5z M56.5,174.9c-4.1,0-7.5-3.3-7.5-7.5c0-4.1,3.4-7.5,7.5-7.5c1.3,0,2.5,0.3,3.5,0.9c2.5,1.3,4,3.8,4,6.6C64.1,171.5,60.7,174.9,56.5,174.9L56.5,174.9z M97.8,115.8c-4.1,0-7.5-3.3-7.5-7.5c0-4.1,3.4-7.5,7.5-7.5c4.1,0,7.5,3.3,7.5,7.5C105.3,112.5,101.9,115.8,97.8,115.8L97.8,115.8z M158.7,155.1c-4.2,0-7.5-3.3-7.5-7.5c0-4.1,3.4-7.5,7.5-7.5c4.1,0,7.5,3.3,7.5,7.5C166.2,151.7,162.9,155.1,158.7,155.1L158.7,155.1z M200,96.1c-4.1,0-7.5-3.3-7.5-7.5c0-4.1,3.4-7.5,7.5-7.5c4.1,0,7.5,3.3,7.5,7.5C207.5,92.7,204.1,96.1,200,96.1L200,96.1z"/></g></g>
</svg>